<svg xmlns="http://www.w3.org/2000/svg" width="100" height="100" fill="none" viewBox="0 0 100 100"><g clip-path="url(#a)" opacity=".7"><circle cx="50" cy="50" r="50" fill="#f3f4f6"/><path stroke="#6b7280" stroke-miterlimit="10" stroke-width="3" d="M49.998 74.996c13.806 0 24.998-11.192 24.998-24.998S63.804 25 49.998 25 25 36.192 25 49.998s11.192 24.998 24.998 24.998Z"/><path stroke="#6b7280" stroke-miterlimit="10" stroke-width="2" d="M31.708 67 7.615 78.961"/><path fill="#6b7280" d="M9.967 80.943a2.967 2.967 0 1 0 0-5.933 2.967 2.967 0 0 0 0 5.933"/><path stroke="#6b7280" stroke-miterlimit="10" stroke-width=".7" d="M41.508 42.17a5.695 5.695 0 1 0 0-11.39 5.695 5.695 0 0 0 0 11.39Z"/><path stroke="#6b7280" stroke-miterlimit="10" stroke-width=".7" d="M42.925 37.031a4 4 0 0 0-.5-.168 1.61 1.61 0 1 0-1.833 0 3.5 3.5 0 0 0-.5.168 3.6 3.6 0 0 0-1.931 1.99h6.694a3.6 3.6 0 0 0-1.93-1.99ZM41.508 55.71a5.695 5.695 0 1 0 0-11.39 5.695 5.695 0 0 0 0 11.39Z"/><path stroke="#6b7280" stroke-miterlimit="10" stroke-width=".7" d="M42.925 50.57a4 4 0 0 0-.5-.168 1.61 1.61 0 1 0-1.833 0 3.5 3.5 0 0 0-.5.168 3.6 3.6 0 0 0-1.931 1.99h6.694a3.6 3.6 0 0 0-1.93-1.99Zm4.245 13.634a5.695 5.695 0 1 0-11.318-1.275 5.695 5.695 0 0 0 11.318 1.275Z"/><path stroke="#6b7280" stroke-miterlimit="10" stroke-width=".7" d="M42.925 64.11a4 4 0 0 0-.5-.168 1.61 1.61 0 1 0-1.833 0 3.5 3.5 0 0 0-.5.168 3.6 3.6 0 0 0-1.931 1.99h6.694a3.6 3.6 0 0 0-1.93-1.99ZM61.972 39.5h-9.575a2.226 2.226 0 0 1-2.226-2.226v-1.598c0-1.229.996-2.225 2.225-2.225h9.575c1.23 0 2.226.996 2.226 2.225v1.598c0 1.23-.996 2.226-2.225 2.226Z"/><path stroke="#6b7280" stroke-miterlimit="10" stroke-width=".7" d="M59.642 35.662h-7.784a.343.343 0 0 1-.342-.343v-.222c0-.19.153-.343.343-.343h7.783c.19 0 .343.154.343.343v.222c0 .19-.153.343-.343.343Zm2.704 0h-.954a.343.343 0 0 1-.343-.343v-.222c0-.19.153-.343.343-.343h.953c.19 0 .343.154.343.343v.222c0 .19-.153.343-.343.343Zm0 1.72h-7.784a.343.343 0 0 1-.343-.343v-.221c0-.19.153-.343.343-.343h7.784c.189 0 .342.154.342.343v.221a.343.343 0 0 1-.343.343Zm-9.371 0h-1.117a.343.343 0 0 1-.342-.343v-.221c0-.19.153-.343.343-.343h1.116c.19 0 .343.154.343.343v.221a.343.343 0 0 1-.343.343Zm8.997 15.657h-9.575a2.226 2.226 0 0 1-2.226-2.226v-1.598c0-1.229.996-2.225 2.225-2.225h9.575c1.23 0 2.226.996 2.226 2.225v1.598c0 1.23-.996 2.226-2.225 2.226Z"/><path stroke="#6b7280" stroke-miterlimit="10" stroke-width=".7" d="M59.642 49.201h-7.784a.343.343 0 0 1-.342-.343v-.221c0-.19.153-.343.343-.343h7.783c.19 0 .343.153.343.343v.221a.343.343 0 0 1-.343.343Zm2.704 0h-.954a.343.343 0 0 1-.343-.343v-.221c0-.19.153-.343.343-.343h.953c.19 0 .343.153.343.343v.221a.343.343 0 0 1-.343.343Zm0 1.719h-7.784a.343.343 0 0 1-.343-.342v-.222c0-.189.153-.342.343-.342h7.784c.189 0 .342.153.342.342v.222c0 .19-.153.343-.343.343Zm-9.371 0h-1.117a.343.343 0 0 1-.342-.342v-.222c0-.189.153-.342.343-.342h1.116c.19 0 .343.153.343.342v.222c0 .19-.154.343-.343.343Zm8.997 15.659h-9.575a2.225 2.225 0 0 1-2.226-2.225v-1.598c0-1.23.997-2.226 2.226-2.226h9.575c1.23 0 2.226.997 2.226 2.226v1.598a2.226 2.226 0 0 1-2.226 2.225Z"/><path stroke="#6b7280" stroke-miterlimit="10" stroke-width=".7" d="M59.642 62.741h-7.784a.343.343 0 0 1-.342-.343v-.221c0-.19.153-.343.343-.343h7.783c.19 0 .343.153.343.343v.221c0 .19-.153.343-.343.343Zm2.704 0h-.954a.343.343 0 0 1-.343-.343v-.221c0-.19.153-.343.343-.343h.953c.19 0 .343.153.343.343v.221c0 .19-.153.343-.343.343Zm0 1.721h-7.784a.343.343 0 0 1-.343-.343v-.221c0-.19.153-.343.343-.343h7.784c.189 0 .342.153.342.343v.221c0 .19-.153.343-.343.343Zm-9.371 0h-1.117a.343.343 0 0 1-.342-.343v-.221c0-.19.153-.343.343-.343h1.116c.19 0 .343.153.343.343v.221c0 .19-.154.343-.343.343Z"/></g><defs><clipPath id="a"><rect width="100" height="100" fill="#fff" rx="50"/></clipPath></defs></svg>