<svg xmlns="http://www.w3.org/2000/svg" width="100" height="100" fill="none" viewBox="0 0 100 100"><g clip-path="url(#a)" opacity=".7"><circle cx="50" cy="50" r="50" fill="#f3f4f6"/><path stroke="#6b7280" stroke-miterlimit="10" d="M60.778 44.81a7.5 7.5 0 0 0-.575-1.83l.924-1.57a9.1 9.1 0 0 0-1.778-2.126l-1.708.633a7.5 7.5 0 0 0-1.7-.89l-.455-1.764a9.3 9.3 0 0 0-2.76-.246l-.76 1.657a7.5 7.5 0 0 0-1.833.575l-1.567-.924a9.1 9.1 0 0 0-2.125 1.777l.633 1.71a7.5 7.5 0 0 0-.89 1.7l-1.765.457a9.2 9.2 0 0 0-.245 2.757l1.657.76c.113.64.31 1.255.575 1.833l-.925 1.567a9.1 9.1 0 0 0 1.778 2.125l1.706-.633a7.6 7.6 0 0 0 1.703.89l.455 1.764a9.2 9.2 0 0 0 2.76.246l.759-1.657a7.5 7.5 0 0 0 1.83-.575l1.57.925a9.1 9.1 0 0 0 2.126-1.778l-.634-1.706a7.6 7.6 0 0 0 .89-1.704l1.765-.454a9.2 9.2 0 0 0 .245-2.758zm-1.032 1.911a6.466 6.466 0 0 1-7.014 5.869 6.466 6.466 0 0 1-5.87-7.015 6.466 6.466 0 0 1 7.015-5.868 6.466 6.466 0 0 1 5.869 7.014Z"/><path stroke="#6b7280" stroke-miterlimit="10" stroke-width=".75" d="M47.836 56.713a4.4 4.4 0 0 0-.339-1.082l.545-.93a5.5 5.5 0 0 0-1.05-1.258l-1.011.376a4.4 4.4 0 0 0-1.006-.525l-.27-1.046a5.4 5.4 0 0 0-.812-.133 5.4 5.4 0 0 0-.82-.012l-.451.982a4.4 4.4 0 0 0-1.085.338l-.929-.548a5.5 5.5 0 0 0-1.256 1.053l.376 1.012a4.4 4.4 0 0 0-.528 1.005l-1.046.271a5.7 5.7 0 0 0-.145 1.632l.982.45c.068.378.182.744.342 1.086l-.548.929c.286.469.64.891 1.05 1.256l1.012-.376q.463.327 1.008.528l.27 1.043a5.3 5.3 0 0 0 1.632.145l.45-.98q.57-.101 1.083-.341l.93.548a5.5 5.5 0 0 0 1.255-1.05l-.373-1.011a4.4 4.4 0 0 0 .525-1.009l1.046-.27q.097-.394.133-.81.038-.416.012-.822zm-.61 1.133a3.827 3.827 0 1 1-7.625-.677 3.827 3.827 0 0 1 7.625.678Z"/><path stroke="#6b7280" stroke-miterlimit="10" stroke-width="3" d="M49.902 74.803c13.752 0 24.901-11.149 24.901-24.901S63.654 25 49.902 25 25 36.149 25 49.902c0 13.752 11.149 24.901 24.902 24.901Z"/><path stroke="#6b7280" stroke-miterlimit="10" stroke-width="2" d="M28.511 62.658 4.418 74.618"/><path fill="#6b7280" d="M6.77 76.6a2.967 2.967 0 1 0 0-5.932 2.967 2.967 0 0 0 0 5.933"/></g><defs><clipPath id="a"><rect width="100" height="100" fill="#fff" rx="50"/></clipPath></defs></svg>