<svg xmlns="http://www.w3.org/2000/svg" width="100" height="100" fill="none" viewBox="0 0 100 100"><g clip-path="url(#a)" opacity=".7"><circle cx="50" cy="50" r="50" fill="#f3f4f6"/><path stroke="#6b7280" stroke-miterlimit="10" d="M59.87 36.728c-.12-.09-.25-.183-.374-.274a16.5 16.5 0 0 0-5.878-2.656 17 17 0 0 0-1.006-.196 16 16 0 0 0-2.71-.225 16.8 16.8 0 0 0-3.505.375 16.4 16.4 0 0 0-6.55 3.047c-3.933 3.022-6.469 7.769-6.469 13.102 0 5.491 2.694 10.367 6.83 13.368.062.05.129.096.191.142.063.041.12.087.183.128a16.44 16.44 0 0 0 9.32 2.885c.988 0 1.961-.087 2.905-.253q.448-.082.89-.187a16.4 16.4 0 0 0 6.127-2.877l.178-.137q.1-.074.192-.154c3.795-3.03 6.23-7.694 6.23-12.915 0-5.37-2.572-10.15-6.555-13.173Zm6.133 12.964H60.9a20 20 0 0 0-.086-1.258c-.445-4.26-1.584-7.798-3.413-10.587a20 20 0 0 0 2.058-.902c3.92 2.895 6.477 7.525 6.544 12.747Zm-8.99 11.987a30 30 0 0 0-4.875-.9 20 20 0 0 0-2.027-.103V50.108h10.384a19.76 19.76 0 0 1-3.483 11.571Zm-13.905.253c-2.423-3.428-3.74-7.558-3.654-11.824h10.241V60.68a20 20 0 0 0-6.587 1.252Zm-3.64-12.24c.016-.405.04-.81.083-1.216.44-4.236 1.58-7.74 3.404-10.492q2.451.729 5.35 1.035c.465.047.928.074 1.39.09v10.583zm10.643 0V39.12q.127.005.256.007c2.282 0 4.518-.39 6.63-1.13 1.825 2.751 2.96 6.251 3.4 10.479.043.406.067.811.084 1.216zm8.964-13.022c-.619.308-1.26.582-1.912.819a15.6 15.6 0 0 0-2.747-3.051 16 16 0 0 1 4.66 2.232Zm-5.645-2.486a15.2 15.2 0 0 1 3.326 3.455 19.6 19.6 0 0 1-6.645 1.06v-4.9a16 16 0 0 1 3.32.386Zm-3.735-.385v4.892c-.448-.016-.898-.04-1.348-.088q-2.788-.288-5.146-.981a15.2 15.2 0 0 1 3.375-3.483 16 16 0 0 1 3.12-.34Zm-4.083.577a15.7 15.7 0 0 0-2.83 3.118 21 21 0 0 1-2.112-.782 16 16 0 0 1 4.942-2.336Zm-5.337 2.618q1.072.486 2.265.865c-1.82 2.79-2.96 6.322-3.405 10.575q-.063.63-.086 1.257H33.8c.067-5.188 2.594-9.797 6.475-12.697ZM33.8 50.108h5.235c-.085 4.316 1.24 8.497 3.676 11.975q-1.075.423-2.096.967c-4.07-2.881-6.747-7.607-6.815-12.942Zm7.202 13.208q.955-.495 1.958-.886a20.7 20.7 0 0 0 2.668 3.006 16 16 0 0 1-4.626-2.12Zm5.495 2.331a20.5 20.5 0 0 1-3.134-3.366 19.6 19.6 0 0 1 6.332-1.184v4.906a16 16 0 0 1-3.198-.356Zm3.614.356v-4.909q.989 0 1.985.102a29.4 29.4 0 0 1 4.66.846 20 20 0 0 1-3.255 3.564 16.4 16.4 0 0 1-3.39.397Zm4.272-.63a20.4 20.4 0 0 0 2.802-3.209c.76.221 1.492.47 2.185.752a16 16 0 0 1-4.987 2.457Zm5.374-2.748a22 22 0 0 0-2.32-.822c2.31-3.424 3.56-7.493 3.477-11.695h5.09a16.07 16.07 0 0 1-6.247 12.517Z"/><path stroke="#6b7280" stroke-miterlimit="10" stroke-width="3" d="M49.902 74.803c13.752 0 24.901-11.149 24.901-24.901S63.654 25 49.902 25 25 36.149 25 49.902c0 13.752 11.149 24.901 24.902 24.901Z"/><path stroke="#6b7280" stroke-miterlimit="10" stroke-width="2" d="M28.511 62.658 4.418 74.618"/><path fill="#6b7280" d="M6.77 76.6a2.967 2.967 0 1 0 0-5.932 2.967 2.967 0 0 0 0 5.933"/></g><defs><clipPath id="a"><rect width="100" height="100" fill="#fff" rx="50"/></clipPath></defs></svg>