<svg width="18" height="18" viewBox="0 0 26 23" fill="none" xmlns="http://www.w3.org/2000/svg">
<path d="M20 22.6667L18.1333 20.8L20.2333 18.6667H14.6667V16H20.2333L18.1333 13.8667L20 12L25.3333 17.3333L20 22.6667ZM0 22.6667V2.66667C0 1.93333 0.261111 1.30556 0.783333 0.783333C1.30556 0.261111 1.93333 0 2.66667 0H18.6667C19.4 0 20.0278 0.261111 20.55 0.783333C21.0722 1.30556 21.3333 1.93333 21.3333 2.66667V9.43333C21.1111 9.38889 20.8889 9.36111 20.6667 9.35C20.4444 9.33889 20.2222 9.33333 20 9.33333C19.7778 9.33333 19.5556 9.33889 19.3333 9.35C19.1111 9.36111 18.8889 9.38889 18.6667 9.43333V2.66667H2.66667V16H12.1C12.0556 16.2222 12.0278 16.4444 12.0167 16.6667C12.0056 16.8889 12 17.1111 12 17.3333C12 17.5556 12.0056 17.7778 12.0167 18C12.0278 18.2222 12.0556 18.4444 12.1 18.6667H4L0 22.6667Z" fill="currentColor"/>
</svg>
