<svg width="16" height="16" viewBox="0 0 16 16" fill="none" xmlns="http://www.w3.org/2000/svg">
<mask id="mask0_3650_2022" style="mask-type:alpha" maskUnits="userSpaceOnUse" x="0" y="0" width="24" height="24">
<rect width="24" height="24" fill="currentColor"/>
</mask>
<g mask="url(#mask0_3650_2022)">
<path d="M8.25 13.4167C7.86111 13.0278 7.66667 12.5556 7.66667 12C7.66667 11.4444 7.86111 10.9722 8.25 10.5833C8.63889 10.1944 9.11111 10 9.66667 10C10.2222 10 10.6944 10.1944 11.0833 10.5833C11.4722 10.9722 11.6667 11.4444 11.6667 12C11.6667 12.5556 11.4722 13.0278 11.0833 13.4167C10.6944 13.8056 10.2222 14 9.66667 14C9.11111 14 8.63889 13.8056 8.25 13.4167ZM10.1417 12.475C10.2694 12.3472 10.3333 12.1889 10.3333 12C10.3333 11.8111 10.2694 11.6528 10.1417 11.525C10.0139 11.3972 9.85556 11.3333 9.66667 11.3333C9.47778 11.3333 9.31944 11.3972 9.19167 11.525C9.06389 11.6528 9 11.8111 9 12C9 12.1889 9.06389 12.3472 9.19167 12.475C9.31944 12.6028 9.47778 12.6667 9.66667 12.6667C9.85556 12.6667 10.0139 12.6028 10.1417 12.475ZM8.4 8.26667C7.68889 7.55556 7.33333 6.68889 7.33333 5.66667C7.33333 4.64444 7.68889 3.77778 8.4 3.06667C9.11111 2.35556 9.97778 2 11 2C12.0222 2 12.8889 2.35556 13.6 3.06667C14.3111 3.77778 14.6667 4.64444 14.6667 5.66667C14.6667 6.68889 14.3111 7.55556 13.6 8.26667C12.8889 8.97778 12.0222 9.33333 11 9.33333C9.97778 9.33333 9.11111 8.97778 8.4 8.26667ZM12.6583 7.325C13.1083 6.875 13.3333 6.32222 13.3333 5.66667C13.3333 5.01111 13.1083 4.45833 12.6583 4.00833C12.2083 3.55833 11.6556 3.33333 11 3.33333C10.3444 3.33333 9.79167 3.55833 9.34167 4.00833C8.89167 4.45833 8.66667 5.01111 8.66667 5.66667C8.66667 6.32222 8.89167 6.875 9.34167 7.325C9.79167 7.775 10.3444 8 11 8C11.6556 8 12.2083 7.775 12.6583 7.325ZM4.66667 12C3.93333 12 3.30556 11.7389 2.78333 11.2167C2.26111 10.6944 2 10.0667 2 9.33333C2 8.6 2.26111 7.97222 2.78333 7.45C3.30556 6.92778 3.93333 6.66667 4.66667 6.66667C5.4 6.66667 6.02778 6.92778 6.55 7.45C7.07222 7.97222 7.33333 8.6 7.33333 9.33333C7.33333 10.0667 7.07222 10.6944 6.55 11.2167C6.02778 11.7389 5.4 12 4.66667 12ZM5.60833 10.275C5.86944 10.0139 6 9.7 6 9.33333C6 8.96667 5.86944 8.65278 5.60833 8.39167C5.34722 8.13056 5.03333 8 4.66667 8C4.3 8 3.98611 8.13056 3.725 8.39167C3.46389 8.65278 3.33333 8.96667 3.33333 9.33333C3.33333 9.7 3.46389 10.0139 3.725 10.275C3.98611 10.5361 4.3 10.6667 4.66667 10.6667C5.03333 10.6667 5.34722 10.5361 5.60833 10.275Z" fill="currentColor"/>
</g>
</svg>
