<svg width="42" height="42" viewBox="0 0 42 42" fill="none" xmlns="http://www.w3.org/2000/svg">
<g clip-path="url(#clip0_1563_5498)">
<g clip-path="url(#clip1_1563_5498)">
<path opacity="0.15" d="M20.9997 17.5418C24.8196 17.5418 27.9163 14.4451 27.9163 10.6252C27.9163 6.80519 24.8196 3.7085 20.9997 3.7085C17.1797 3.7085 14.083 6.80519 14.083 10.6252C14.083 14.4451 17.1797 17.5418 20.9997 17.5418Z" fill="#1B3A6B"/>
<path opacity="0.15" d="M8.03092 20.9998C10.4184 20.9998 12.3538 19.0644 12.3538 16.6769C12.3538 14.2894 10.4184 12.354 8.03092 12.354C5.64344 12.354 3.70801 14.2894 3.70801 16.6769C3.70801 19.0644 5.64344 20.9998 8.03092 20.9998Z" fill="#1B3A6B"/>
<path opacity="0.15" d="M33.9684 20.9998C36.3559 20.9998 38.2913 19.0644 38.2913 16.6769C38.2913 14.2894 36.3559 12.354 33.9684 12.354C31.5809 12.354 29.6455 14.2894 29.6455 16.6769C29.6455 19.0644 31.5809 20.9998 33.9684 20.9998Z" fill="#1B3A6B"/>
<path d="M26.1875 33.1042H15.8125C12.9473 33.1042 10.625 30.3946 10.625 27.0521C10.625 23.7096 12.9473 21 15.8125 21H26.1875C29.0527 21 31.375 23.7096 31.375 27.0521C31.375 30.3946 29.0527 33.1042 26.1875 33.1042Z" fill="#1B3A6B"/>
<path opacity="0.15" d="M37.5153 24.4585H4.35158C2.08637 24.4585 0.25 26.2949 0.25 28.5601V29.0045C0.25 31.268 2.08637 33.1043 4.35158 33.1043H37.5153C39.8531 33.1043 41.75 31.2074 41.75 28.8679V28.6932C41.75 26.3554 39.8531 24.4585 37.5153 24.4585Z" fill="#1B3A6B"/>
</g>
</g>
<defs>
<clipPath id="clip0_1563_5498">
<rect width="42" height="42" fill="white"/>
</clipPath>
<clipPath id="clip1_1563_5498">
<rect width="41.5" height="41.5" fill="white" transform="translate(0.25 0.25)"/>
</clipPath>
</defs>
</svg>
