<svg width="32" height="34" viewBox="0 0 32 34" fill="none" xmlns="http://www.w3.org/2000/svg">
<g clip-path="url(#clip0_159_604)">
<path fill-rule="evenodd" clip-rule="evenodd" d="M0.409375 13.6259C0.451152 13.2303 0.389486 12.8274 0.436486 12.4305C0.530653 11.6345 0.945264 10.8451 1.56704 10.3322C1.74804 10.1829 1.94382 10.0549 2.15332 9.94864C2.25354 9.89778 2.37804 9.87116 2.47254 9.81582C2.50432 8.85415 2.46849 7.88534 2.4701 6.92294C2.47099 6.40116 2.4546 5.87018 2.53299 5.35266C2.65504 4.54643 2.91799 3.77313 3.33854 3.07216C4.1631 1.69793 5.56643 0.606216 7.15321 0.269592C7.90054 0.111102 8.65193 0.136392 9.41148 0.13606C10.0957 0.135727 10.7636 0.123608 11.4379 0.256033C12.73 0.509705 13.9561 1.29507 14.7814 2.30677C15.4547 3.13203 15.9268 4.15801 16.084 5.21193C16.2098 6.05529 16.1492 6.93064 16.1502 7.78091C16.1508 8.23286 16.1501 8.68481 16.1508 9.13676C16.1512 9.33432 16.1128 9.57621 16.1537 9.76856C16.4122 9.80476 16.7029 9.98815 16.915 10.1313C17.621 10.6077 18.1097 11.3919 18.271 12.2219C18.3442 12.5989 18.3234 12.9885 18.3247 13.3708C18.3265 13.8968 18.3347 14.4213 18.3349 14.9473C18.3353 16.6351 18.3308 18.3238 18.3345 20.0107C18.336 20.6603 18.3944 21.3509 18.277 21.9923C18.1791 22.5268 17.9389 23.0483 17.5907 23.4671C17.0519 24.1151 16.2945 24.5477 15.4579 24.6743C15.141 24.7223 14.8138 24.7053 14.4944 24.7047C14.0222 24.7038 13.55 24.7049 13.0778 24.7065C12.7445 24.7075 12.4112 24.7091 12.0779 24.7106C11.932 24.7112 11.7454 24.681 11.6069 24.7306C11.714 24.8503 11.855 24.934 11.9911 25.0168C12.2251 25.1592 12.4641 25.2844 12.7149 25.3948C13.6301 25.7977 14.5892 26.0393 15.567 26.2359C17.356 26.5958 19.2 26.7196 21.0223 26.7236C23.0923 26.7281 25.1856 26.5662 27.1975 26.0595C28.3199 25.7767 29.4831 25.4229 30.4153 24.714C30.6668 24.5226 30.8284 24.2597 31.0379 24.0297C31.1509 23.9056 31.2894 23.8301 31.4599 23.9009C31.5784 23.9501 31.7158 24.0484 31.7636 24.1721C31.812 24.2969 31.7835 24.4768 31.784 24.609C31.7853 24.9117 31.7849 25.2145 31.7851 25.5172C31.7859 26.6424 31.7873 27.7676 31.7872 28.8927C31.7871 29.2155 31.7881 29.5384 31.7873 29.8612C31.7867 30.1261 31.7941 30.387 31.7162 30.6436C31.5289 31.2599 30.987 31.7097 30.464 32.0456C29.8857 32.417 29.2358 32.6793 28.5834 32.8892C27.9599 33.0898 27.3304 33.2671 26.6869 33.3935C23.0159 34.1144 19.1414 34.1109 15.4627 33.4315C14.5217 33.2577 13.5928 33.0165 12.6977 32.6774C11.9569 32.3969 11.2209 32.0314 10.6495 31.4731C10.3844 31.2141 10.1691 30.883 10.0795 30.5216C10.0322 30.3308 10.0364 30.1296 10.0347 29.9343C10.0322 29.6606 10.033 29.3867 10.0333 29.113C10.0343 28.1266 10.0324 27.1403 10.0332 26.1539C10.0334 25.831 10.037 25.5082 10.0376 25.1853C10.0379 25.0307 10.0535 24.8674 10.0369 24.7138C10.0189 24.6915 9.94043 24.7033 9.91121 24.7032C9.80004 24.7026 9.68887 24.7017 9.57776 24.701C9.11476 24.6985 8.65176 24.6991 8.18876 24.6983C7.0776 24.6967 5.96654 24.6967 4.85538 24.6975C4.16238 24.698 3.4416 24.765 2.77065 24.5589C1.71721 24.2353 0.853819 23.4051 0.546819 22.343C0.40493 21.852 0.428986 21.3718 0.412431 20.8681C0.390375 20.1979 0.392208 19.5185 0.412375 18.8482C0.464708 17.1092 0.35343 15.365 0.409375 13.6259ZM1.4656 12.6576C1.43976 12.9758 1.45626 13.3002 1.45638 13.6192C1.45665 14.1818 1.4561 14.7444 1.45665 15.307C1.45826 16.9668 1.45465 18.6266 1.45654 20.2864C1.45721 20.8366 1.39504 21.4343 1.52349 21.9736C1.6541 22.5218 2.03515 23.0148 2.5076 23.3154C3.11176 23.6998 3.7801 23.6652 4.46693 23.6647C5.06954 23.6642 5.67838 23.6881 6.28021 23.6594C6.98699 23.6257 7.70354 23.6589 8.41126 23.6579C9.86487 23.6558 11.3185 23.6544 12.7721 23.6529C13.2999 23.6523 13.8277 23.6521 14.3555 23.6507C14.6581 23.65 14.9673 23.6674 15.2685 23.6344C16.2715 23.5245 17.1528 22.7419 17.2758 21.7238C17.3292 21.2815 17.3014 20.823 17.2942 20.3786C17.2865 19.9059 17.2942 19.4322 17.2937 18.9594C17.2918 17.2531 17.2982 15.5468 17.2927 13.8406C17.2914 13.418 17.3316 12.9697 17.2694 12.5508C17.1721 11.8963 16.7965 11.2681 16.2134 10.9309C15.6682 10.6156 15.1035 10.6343 14.4946 10.6354C13.8187 10.6365 13.1427 10.6379 12.4668 10.6372C10.4482 10.6352 8.42965 10.6397 6.4111 10.6407C5.75371 10.641 5.09626 10.6413 4.43887 10.6413C4.06443 10.6413 3.67504 10.6101 3.30332 10.661C2.31071 10.7969 1.54488 11.6812 1.4656 12.6576ZM3.52582 9.58761C3.52515 9.59541 3.52443 9.60327 3.52376 9.61107C3.54293 9.62402 3.61576 9.60963 3.64126 9.60919C3.73837 9.60736 3.83549 9.6072 3.93265 9.60709C4.32015 9.60675 4.71154 9.58639 5.0986 9.60476C5.13665 9.31307 5.09437 8.98801 5.09449 8.69284C5.09465 8.15843 5.09376 7.62403 5.09343 7.08957C5.0931 6.61709 5.08138 6.14538 5.15493 5.67694C5.2506 5.06733 5.52226 4.46652 5.92176 3.99543C6.11943 3.76234 6.34199 3.54823 6.59426 3.37397C6.91893 3.14974 7.28349 2.98959 7.66654 2.89269C8.27482 2.73885 8.91932 2.79928 9.5406 2.79596C10.2741 2.79214 11.0117 2.77349 11.6773 3.1317C12.509 3.57939 13.1471 4.33653 13.4004 5.25045C13.5186 5.67678 13.5563 6.10997 13.5569 6.5509C13.5573 6.82461 13.5978 7.13218 13.55 7.40146C13.528 7.52553 13.5623 7.63748 13.4525 7.73072C13.3822 7.75513 13.2925 7.73952 13.2187 7.73946C13.02 7.7393 12.6274 7.82103 12.5197 7.60427C12.4742 7.51263 12.4999 7.3558 12.4992 7.25547C12.4972 6.97601 12.4991 6.6965 12.4979 6.41698C12.4945 5.62432 12.2366 4.80685 11.5813 4.30665C10.9927 3.85741 10.3373 3.85287 9.62843 3.85603C8.9961 3.85885 8.29087 3.76372 7.6856 3.97855C7.49076 4.04766 7.30704 4.15065 7.13965 4.27079C7.00454 4.3678 6.88399 4.48257 6.77537 4.6083C5.9596 5.55265 6.14626 6.84658 6.14854 8.00277C6.1496 8.53706 6.1331 9.07434 6.14987 9.60819C6.38543 9.57222 6.64521 9.60233 6.88365 9.60177C7.3651 9.60067 7.84654 9.60006 8.32804 9.59934C9.72282 9.59729 11.12 9.57272 12.5145 9.59901C12.5194 9.39021 12.5101 9.18015 12.5136 8.97091C12.515 8.88658 12.498 8.76428 12.5435 8.68858C12.5863 8.61752 12.7025 8.57657 12.7793 8.56296C12.9723 8.52887 13.2066 8.53584 13.3857 8.62029C13.4348 8.64353 13.4964 8.66489 13.5285 8.71132C13.5787 8.78398 13.5717 8.90379 13.5733 8.98818C13.5774 9.19144 13.5754 9.39519 13.5776 9.59834C13.7837 9.5689 14.0088 9.59176 14.2171 9.59198C14.5095 9.59225 14.8089 9.57349 15.1003 9.59784C15.1195 9.38402 15.0992 9.15812 15.0998 8.94302C15.101 8.47265 15.1004 8.00227 15.0999 7.53189C15.099 6.83457 15.1435 6.11893 15.0485 5.42609C14.9574 4.76159 14.7243 4.10018 14.3655 3.53202C13.6398 2.38247 12.4558 1.49479 11.0986 1.25296C10.5094 1.14798 9.89576 1.1886 9.29993 1.18771C8.78915 1.18699 8.25104 1.14355 7.7446 1.21975C6.62982 1.38749 5.63176 1.96494 4.86521 2.77809C4.21532 3.4675 3.7731 4.36641 3.60182 5.29378C3.52754 5.69598 3.53271 6.10139 3.5331 6.50863C3.53354 6.96976 3.53387 7.43095 3.53365 7.89209C3.53343 8.27022 3.53365 8.64834 3.53326 9.02642C3.5331 9.20234 3.5661 9.41622 3.52582 9.58761ZM11.0442 25.5789C11.0242 25.7087 11.0413 25.8551 11.0414 25.9872C11.0415 26.2455 11.0407 26.5038 11.0405 26.7621C11.0402 27.5737 11.0405 28.3854 11.0406 29.197C11.0407 29.6721 10.9366 30.2328 11.2512 30.6288C11.5741 31.0353 12.0849 31.3157 12.5538 31.5219C13.5308 31.9512 14.5649 32.2449 15.6153 32.4351C17.9294 32.8542 20.2782 32.9896 22.6274 32.869C23.9593 32.8006 25.2852 32.669 26.5894 32.3845C27.49 32.188 28.3691 31.9453 29.2127 31.5696C29.6884 31.3578 30.1849 31.102 30.5301 30.702C30.6188 30.5993 30.7212 30.4564 30.7544 30.3231C30.7899 30.1801 30.7775 30.0215 30.7774 29.8757C30.7772 29.6402 30.7753 29.4047 30.7746 29.1693C30.7724 28.4131 30.7764 27.6569 30.779 26.9008C30.7804 26.4959 30.7529 26.0817 30.7861 25.6782C30.6252 25.7592 30.4823 25.8726 30.3246 25.961C29.9586 26.1659 29.5743 26.3526 29.1791 26.4954C27.0671 27.2581 24.8713 27.5707 22.6383 27.6954C20.5267 27.8132 18.3769 27.7259 16.2885 27.3897C15.0632 27.1923 13.8525 26.9252 12.6943 26.4737C12.1295 26.2534 11.4959 25.9934 11.0442 25.5789Z" fill="#currentColor"/>
<path fill-rule="evenodd" clip-rule="evenodd" d="M7.15869 15.561C7.23591 15.1641 7.35858 14.8205 7.60146 14.4916C7.76202 14.2742 7.97174 14.0897 8.19952 13.945C8.43413 13.7959 8.71635 13.6851 8.99263 13.6476C9.40124 13.5922 9.82358 13.6068 10.211 13.7624C11.3092 14.2034 11.8705 15.5286 11.469 16.6265C11.3478 16.9578 11.1604 17.2478 10.9095 17.4964C10.8673 18.1383 10.9162 18.7925 10.9191 19.4352C10.9203 19.6846 10.9756 20.049 10.8466 20.273C10.6994 20.5285 10.4205 20.5231 10.161 20.5228C9.63324 20.5221 9.10552 20.5232 8.57774 20.5238C8.32985 20.5242 8.0528 20.5578 7.90291 20.316C7.83541 20.2071 7.84274 20.1023 7.84291 19.9787C7.84308 19.8151 7.84663 19.6515 7.84819 19.4879C7.85435 18.8415 7.90374 18.1749 7.85919 17.5302C7.32491 16.9973 7.05669 16.3178 7.15869 15.561ZM8.18807 15.784C8.15841 16.127 8.27746 16.4672 8.51596 16.7152C8.63352 16.8373 8.77946 16.9238 8.91563 17.0219C8.94496 17.055 8.93085 17.1362 8.93102 17.179C8.93163 17.3297 8.93046 17.4804 8.93096 17.6311C8.93296 18.2368 8.97796 18.8651 8.92235 19.4683C9.11263 19.4686 9.30413 19.4578 9.49496 19.4584C9.59685 19.4587 9.72607 19.4809 9.82463 19.4557C9.80685 18.9503 9.82169 18.4409 9.82258 17.9351C9.82313 17.6302 9.79308 17.3073 9.83241 17.0047C10.0518 16.8407 10.2713 16.6852 10.4 16.4356C10.8035 15.6528 10.2536 14.6607 9.35046 14.6646C9.20246 14.6653 9.05774 14.6994 8.92191 14.757C8.77769 14.8181 8.6473 14.9053 8.53802 15.0178C8.31713 15.2451 8.25052 15.4869 8.18807 15.784Z" fill="#currentColor"/>
<path fill-rule="evenodd" clip-rule="evenodd" d="M16.057 25.5998C16.2686 25.4684 16.5303 25.4275 16.7564 25.3239C17.0315 25.1979 17.2594 25.0269 17.5 24.8489C17.5899 24.833 17.6921 24.8649 17.7828 24.8709C18.0315 24.8875 18.2792 24.9162 18.5277 24.9359C19.211 24.9902 19.8976 25.0168 20.5829 25.0245C22.8817 25.0502 25.2504 24.8745 27.4712 24.2546C28.2535 24.0362 28.9988 23.7547 29.7121 23.3659C30.1035 23.1527 30.4973 22.8777 30.7111 22.4764C30.783 22.3414 30.7724 22.1758 30.772 22.0275C30.7714 21.7889 30.769 21.5504 30.7689 21.3119C30.7687 20.7211 30.7763 20.1303 30.7767 19.5395C30.7769 19.1952 30.7532 18.8411 30.7843 18.4979C30.3147 18.7492 29.8726 19.0214 29.373 19.2166C27.9426 19.7758 26.4298 20.0794 24.9122 20.2846C23.9877 20.4096 23.0543 20.501 22.1213 20.5252C21.4186 20.5434 20.711 20.5689 20.0078 20.5371C19.8461 20.5298 19.6839 20.5279 19.522 20.5265C19.4575 20.5259 19.3725 20.5411 19.3116 20.5195C19.3021 20.188 19.3141 19.8557 19.3008 19.5244C19.4125 19.4925 19.539 19.512 19.6538 19.5169C19.8322 19.5245 20.0107 19.5271 20.1892 19.5306C20.8121 19.5425 21.439 19.5462 22.0617 19.5234C23.8331 19.4586 25.6164 19.2477 27.3373 18.8156C28.089 18.6268 28.824 18.3901 29.5241 18.0558C29.8506 17.8998 30.1792 17.7311 30.4633 17.5046C30.6718 17.3384 30.8484 17.1501 31.0152 16.9431C31.0791 16.8638 31.1617 16.7006 31.2633 16.6676C31.3359 16.6441 31.4515 16.6894 31.5173 16.7226C31.7781 16.854 31.7702 17.0752 31.7711 17.3272C31.7722 17.6962 31.7725 18.0651 31.7712 18.434C31.7684 19.2434 31.741 20.0602 31.7729 20.8689C31.7862 21.2051 31.7822 21.5452 31.7787 21.8822C31.7766 22.0923 31.7927 22.3158 31.7479 22.5224C31.6638 22.9104 31.4355 23.2581 31.1647 23.5433C30.8488 23.876 30.4259 24.1342 30.021 24.344C29.3678 24.6823 28.6738 24.951 27.9645 25.1478C26.1691 25.6459 24.3486 25.8696 22.4946 25.9907C21.6034 26.0489 20.7093 26.0076 19.8178 25.999C18.8936 25.9901 17.9798 25.8755 17.0615 25.7848C16.8088 25.7599 16.5402 25.7305 16.2937 25.6694C16.216 25.6502 16.1172 25.6551 16.057 25.5998Z" fill="#currentColor"/>
<path fill-rule="evenodd" clip-rule="evenodd" d="M17.1337 6.154C17.1336 6.14188 17.1336 6.12976 17.1335 6.11765C17.4458 6.01804 17.8203 6.02407 18.1461 5.99446C18.8402 5.93143 19.5347 5.8995 20.2314 5.88484C21.8073 5.85158 23.3809 5.92247 24.9454 6.11831C26.026 6.25356 27.1284 6.4411 28.1705 6.76239C28.9799 7.01192 29.7769 7.29127 30.4997 7.73951C30.8682 7.96811 31.2326 8.25388 31.4774 8.61552C31.6194 8.8253 31.7246 9.06818 31.7626 9.31915C31.8053 9.60076 31.7713 9.90402 31.771 10.1886C31.7704 10.8711 31.7715 11.5537 31.7714 12.2362C31.7712 12.9002 31.772 13.5643 31.7722 14.2283C31.7722 14.592 31.8238 14.9999 31.751 15.3575C31.6837 15.6887 31.4658 16.0129 31.2347 16.2538C30.3795 17.1453 29.1264 17.584 27.9689 17.9315C26.696 18.3137 25.3661 18.5191 24.0463 18.6556C23.3362 18.729 22.6226 18.7478 21.9109 18.7965C21.6258 18.816 21.334 18.8045 21.0483 18.8047C20.7444 18.805 20.4373 18.8152 20.1338 18.7975C19.8667 18.7819 19.5812 18.7537 19.3145 18.7711C19.2993 18.5475 19.3101 18.3212 19.3109 18.0971C19.3113 17.9856 19.2918 17.8626 19.3104 17.7533C20.0969 17.819 20.8956 17.8009 21.6839 17.7874C23.7362 17.752 25.757 17.4856 27.7387 16.9496C28.4614 16.7541 29.1805 16.4691 29.8248 16.0887C30.1622 15.8895 30.5089 15.6385 30.7086 15.2934C30.7837 15.1636 30.7765 14.9902 30.776 14.8447C30.7753 14.6113 30.7753 14.3779 30.7751 14.1445C30.7746 13.5087 30.7762 12.8729 30.7767 12.2371C30.7769 11.9272 30.7313 11.5745 30.7855 11.2696C29.6313 12.0138 28.3104 12.4355 26.9722 12.7201C25.2363 13.0894 23.4526 13.2944 21.678 13.3267C21.0987 13.3371 20.5184 13.3307 19.9391 13.3226C19.7309 13.3197 19.5181 13.2928 19.3107 13.3C19.2816 13.1985 19.3039 13.0678 19.3033 12.962C19.3019 12.7308 19.3033 12.5024 19.279 12.2721C19.5857 12.2476 19.9091 12.2951 20.217 12.3041C20.7576 12.3197 21.2997 12.3173 21.8403 12.3024C22.9732 12.2712 24.099 12.1466 25.2215 11.9986C26.2831 11.8588 27.3779 11.6591 28.3867 11.2919C29.0819 11.0388 29.8461 10.7931 30.4024 10.284C30.6734 10.036 30.9076 9.6727 30.726 9.30459C30.5681 8.98473 30.244 8.76543 29.9531 8.577C29.2029 8.09102 28.2917 7.82091 27.4312 7.6062C25.1728 7.04246 22.8256 6.85354 20.501 6.89239C19.7069 6.90567 18.9175 6.96294 18.1264 7.0226C17.9044 7.03936 17.6828 7.0729 17.462 7.10118C17.3624 7.11396 17.2417 7.15375 17.1424 7.1346C17.1449 6.80938 17.1521 6.47895 17.1337 6.154Z" fill="currentColor"/>
</g>
<defs>
<clipPath id="clip0_159_604">
<rect width="32" height="34" fill="white"/>
</clipPath>
</defs>
</svg>
