<svg width="14" height="13" viewBox="0 0 14 13" fill="none" xmlns="http://www.w3.org/2000/svg">
<path d="M3.6 12.6667L2.66667 11.7333L7.26667 7.11667L9.6 9.45L13.05 6L14 6.95L9.6 11.3333L7.26667 9L3.6 12.6667ZM1.33333 12C0.966667 12 0.652778 11.8694 0.391667 11.6083C0.130556 11.3472 0 11.0333 0 10.6667V1.33333C0 0.966667 0.130556 0.652778 0.391667 0.391667C0.652778 0.130556 0.966667 0 1.33333 0H10.6667C11.0333 0 11.3472 0.130556 11.6083 0.391667C11.8694 0.652778 12 0.966667 12 1.33333V4.13333H1.33333V12ZM1.33333 2.8H10.6667V1.33333H1.33333V2.8Z" fill="currentColor"/>
</svg>
