<svg width="32" height="34" viewBox="0 0 32 34" fill="none" xmlns="http://www.w3.org/2000/svg">
<g clip-path="url(#clip0_292_679)">
<path fill-rule="evenodd" clip-rule="evenodd" d="M0.409497 13.6254C0.451274 13.2298 0.389608 12.8269 0.436608 12.43C0.530775 11.634 0.945386 10.8446 1.56716 10.3317C1.74816 10.1824 1.94394 10.0545 2.15344 9.94815C2.25366 9.89729 2.37816 9.87067 2.47266 9.81533C2.50444 8.85366 2.46861 7.88485 2.47022 6.92246C2.47111 6.40067 2.45472 5.8697 2.53311 5.35217C2.65516 4.54594 2.91811 3.77264 3.33866 3.07167C4.16322 1.69745 5.56655 0.605728 7.15333 0.269103C7.90066 0.110614 8.65205 0.135903 9.41161 0.135571C10.0958 0.135239 10.7637 0.12312 11.4381 0.255545C12.7302 0.509217 13.9562 1.29458 14.7816 2.30628C15.4548 3.13154 15.9269 4.15752 16.0841 5.21144C16.2099 6.0548 16.1493 6.93015 16.1503 7.78042C16.1509 8.23238 16.1502 8.68432 16.1509 9.13627C16.1513 9.33383 16.1129 9.57572 16.1538 9.76807C16.4123 9.80427 16.703 9.98766 16.9152 10.1308C17.6212 10.6072 18.1098 11.3914 18.2711 12.2215C18.3443 12.5984 18.3235 12.988 18.3248 13.3703C18.3267 13.8963 18.3348 14.4208 18.335 14.9468C18.3354 16.6346 18.3309 18.3233 18.3347 20.0102C18.3361 20.6598 18.3946 21.3504 18.2771 21.9919C18.1792 22.5263 17.9391 23.0478 17.5908 23.4666C17.052 24.1146 16.2946 24.5472 15.458 24.6738C15.1412 24.7218 14.8139 24.7048 14.4945 24.7042C14.0223 24.7033 13.5501 24.7044 13.0779 24.706C12.7446 24.707 12.4113 24.7086 12.078 24.7101C11.9321 24.7108 11.7456 24.6805 11.6071 24.7301C11.7141 24.8498 11.8552 24.9335 11.9912 25.0163C12.2252 25.1587 12.4642 25.2839 12.715 25.3943C13.6302 25.7972 14.5893 26.0388 15.5672 26.2354C17.3561 26.5954 19.2001 26.7191 21.0224 26.7231C23.0924 26.7276 25.1857 26.5657 27.1977 26.059C28.3201 25.7762 29.4832 25.4224 30.4154 24.7135C30.6669 24.5222 30.8285 24.2592 31.038 24.0292C31.151 23.9051 31.2896 23.8296 31.4601 23.9004C31.5786 23.9496 31.7159 24.0479 31.7638 24.1716C31.8121 24.2964 31.7837 24.4763 31.7842 24.6085C31.7854 24.9112 31.785 25.214 31.7852 25.5168C31.786 26.6419 31.7874 27.7671 31.7873 28.8922C31.7873 29.215 31.7882 29.5379 31.7874 29.8607C31.7868 30.1256 31.7942 30.3866 31.7163 30.6431C31.529 31.2594 30.9871 31.7093 30.4641 32.0452C29.8858 32.4165 29.2359 32.6788 28.5835 32.8887C27.96 33.0893 27.3306 33.2666 26.687 33.393C23.016 34.1139 19.1416 34.1104 15.4628 33.4311C14.5218 33.2572 13.5929 33.016 12.6978 32.6769C11.9571 32.3964 11.221 32.0309 10.6497 31.4726C10.3846 31.2136 10.1692 30.8825 10.0797 30.5211C10.0323 30.3303 10.0366 30.1291 10.0348 29.9338C10.0323 29.6601 10.0331 29.3863 10.0334 29.1125C10.0344 28.1261 10.0326 27.1398 10.0333 26.1534C10.0335 25.8305 10.0371 25.5077 10.0377 25.1848C10.0381 25.0302 10.0536 24.8669 10.0371 24.7134C10.019 24.691 9.94055 24.7028 9.91133 24.7027C9.80016 24.7021 9.689 24.7012 9.57789 24.7005C9.11489 24.698 8.65189 24.6986 8.18888 24.6979C7.07772 24.6963 5.96666 24.6962 4.8555 24.697C4.1625 24.6975 3.44172 24.7645 2.77077 24.5585C1.71733 24.2348 0.853941 23.4046 0.546941 22.3425C0.405052 21.8515 0.429108 21.3713 0.412553 20.8676C0.390497 20.1975 0.39233 19.518 0.412497 18.8477C0.46483 17.1087 0.353552 15.3645 0.409497 13.6254ZM1.46572 12.6571C1.43989 12.9753 1.45639 13.2997 1.4565 13.6188C1.45677 14.1813 1.45622 14.7439 1.45678 15.3065C1.45839 16.9663 1.45477 18.6261 1.45666 20.2859C1.45733 20.8361 1.39516 21.4338 1.52361 21.9732C1.65422 22.5213 2.03527 23.0143 2.50772 23.3149C3.11189 23.6993 3.78022 23.6647 4.46705 23.6642C5.06966 23.6637 5.6785 23.6877 6.28033 23.6589C6.98711 23.6252 7.70366 23.6584 8.41138 23.6574C9.865 23.6553 11.3186 23.654 12.7722 23.6524C13.3001 23.6518 13.8278 23.6516 14.3557 23.6502C14.6582 23.6495 14.9674 23.667 15.2686 23.6339C16.2716 23.524 17.1529 22.7414 17.2759 21.7233C17.3293 21.281 17.3015 20.8226 17.2943 20.3781C17.2866 19.9054 17.2943 19.4317 17.2938 18.9589C17.2919 17.2526 17.2983 15.5464 17.2928 13.8402C17.2915 13.4175 17.3318 12.9692 17.2695 12.5503C17.1722 11.8958 16.7967 11.2676 16.2136 10.9304C15.6683 10.6151 15.1037 10.6338 14.4947 10.6349C13.8188 10.6361 13.1428 10.6374 12.4669 10.6367C10.4483 10.6347 8.42977 10.6392 6.41122 10.6402C5.75383 10.6405 5.09639 10.6408 4.439 10.6408C4.06455 10.6408 3.67516 10.6096 3.30344 10.6605C2.31083 10.7964 1.545 11.6807 1.46572 12.6571ZM3.52594 9.58712C3.52527 9.59492 3.52455 9.60278 3.52389 9.61058C3.54305 9.62353 3.61589 9.60914 3.64139 9.6087C3.7385 9.60687 3.83561 9.60671 3.93277 9.6066C4.32027 9.60627 4.71166 9.5859 5.09872 9.60427C5.13677 9.31258 5.0945 8.98753 5.09461 8.69235C5.09477 8.15795 5.09389 7.62354 5.09355 7.08908C5.09322 6.6166 5.0815 6.14489 5.15505 5.67645C5.25072 5.06684 5.52238 4.46603 5.92189 3.99494C6.11955 3.76185 6.34211 3.54775 6.59439 3.37348C6.91905 3.14925 7.28361 2.9891 7.66666 2.89221C8.27494 2.73836 8.91944 2.79879 9.54072 2.79547C10.2742 2.79166 11.0118 2.77301 11.6774 3.13121C12.5091 3.5789 13.1472 4.33604 13.4005 5.24996C13.5187 5.67629 13.5564 6.10948 13.5571 6.55042C13.5574 6.82412 13.5979 7.13169 13.5502 7.40097C13.5282 7.52504 13.5624 7.63699 13.4527 7.73023C13.3823 7.75464 13.2926 7.73903 13.2188 7.73898C13.0201 7.73881 12.6275 7.82055 12.5198 7.60378C12.4743 7.51214 12.5 7.35531 12.4993 7.25499C12.4973 6.97553 12.4992 6.69601 12.4981 6.4165C12.4947 5.62383 12.2367 4.80637 11.5814 4.30616C10.9928 3.85692 10.3374 3.85239 9.62855 3.85554C8.99622 3.85836 8.291 3.76323 7.68572 3.97806C7.49089 4.04718 7.30716 4.15016 7.13978 4.2703C7.00466 4.36731 6.88411 4.48208 6.7755 4.60781C5.95972 5.55216 6.14638 6.84609 6.14866 8.00228C6.14972 8.53657 6.13322 9.07385 6.15 9.6077C6.38555 9.57173 6.64533 9.60184 6.88378 9.60128C7.36522 9.60018 7.84666 9.59957 8.32816 9.59885C9.72294 9.5968 11.1201 9.57223 12.5146 9.59852C12.5196 9.38973 12.5102 9.17966 12.5137 8.97043C12.5151 8.88609 12.4981 8.76379 12.5437 8.68809C12.5864 8.61703 12.7026 8.57608 12.7794 8.56247C12.9724 8.52838 13.2067 8.53535 13.3858 8.6198C13.4349 8.64304 13.4966 8.6644 13.5287 8.71083C13.5788 8.78349 13.5718 8.9033 13.5734 8.98769C13.5775 9.19095 13.5756 9.3947 13.5777 9.59785C13.7838 9.56841 14.0089 9.59127 14.2172 9.59149C14.5097 9.59177 14.8091 9.57301 15.1004 9.59735C15.1197 9.38353 15.0993 9.15764 15.0999 8.94254C15.1011 8.47216 15.1006 8.00178 15.1 7.5314C15.0991 6.83408 15.1436 6.11844 15.0486 5.4256C14.9575 4.7611 14.7244 4.09969 14.3657 3.53153C13.6399 2.38198 12.4559 1.4943 11.0987 1.25247C10.5096 1.14749 9.89589 1.18811 9.30005 1.18722C8.78927 1.18651 8.25116 1.14306 7.74472 1.21927C6.62994 1.387 5.63189 1.96445 4.86533 2.7776C4.21544 3.46701 3.77322 4.36593 3.60194 5.29329C3.52766 5.69549 3.53283 6.1009 3.53322 6.50814C3.53366 6.96927 3.534 7.43046 3.53377 7.8916C3.53355 8.26973 3.53377 8.64786 3.53339 9.02593C3.53322 9.20185 3.56622 9.41573 3.52594 9.58712ZM11.0443 25.5784C11.0243 25.7082 11.0414 25.8546 11.0415 25.9867C11.0417 26.245 11.0408 26.5033 11.0407 26.7616C11.0403 27.5732 11.0406 28.3849 11.0407 29.1965C11.0408 29.6716 10.9367 30.2323 11.2513 30.6283C11.5742 31.0348 12.085 31.3152 12.5539 31.5214C13.5309 31.9508 14.565 32.2444 15.6154 32.4346C17.9296 32.8537 20.2783 32.9891 22.6276 32.8685C23.9594 32.8001 25.2853 32.6685 26.5896 32.384C27.4901 32.1875 28.3692 31.9448 29.2128 31.5691C29.6885 31.3573 30.1851 31.1015 30.5302 30.7015C30.6189 30.5988 30.7213 30.4559 30.7545 30.3226C30.7901 30.1796 30.7776 30.021 30.7775 29.8752C30.7773 29.6397 30.7754 29.4042 30.7747 29.1688C30.7725 28.4126 30.7765 27.6564 30.7792 26.9003C30.7805 26.4954 30.753 26.0812 30.7863 25.6777C30.6253 25.7587 30.4824 25.8721 30.3248 25.9605C29.9587 26.1654 29.5744 26.3521 29.1792 26.4949C27.0672 27.2577 24.8714 27.5703 22.6384 27.6949C20.5268 27.8127 18.3771 27.7254 16.2887 27.3892C15.0633 27.1919 13.8527 26.9247 12.6944 26.4732C12.1296 26.2529 11.4961 25.9929 11.0443 25.5784Z" fill="white"/>
<path fill-rule="evenodd" clip-rule="evenodd" d="M7.15881 15.561C7.23603 15.1641 7.3587 14.8205 7.60159 14.4916C7.76214 14.2742 7.97186 14.0897 8.19964 13.945C8.43425 13.7959 8.71647 13.6851 8.99275 13.6476C9.40136 13.5922 9.8237 13.6068 10.2111 13.7624C11.3094 14.2034 11.8706 15.5286 11.4691 16.6265C11.3479 16.9578 11.1605 17.2478 10.9096 17.4964C10.8674 18.1383 10.9163 18.7925 10.9193 19.4352C10.9204 19.6846 10.9758 20.049 10.8467 20.273C10.6995 20.5285 10.4206 20.5231 10.1611 20.5228C9.63336 20.5221 9.10564 20.5232 8.57786 20.5238C8.32997 20.5242 8.05292 20.5578 7.90303 20.316C7.83553 20.2071 7.84286 20.1023 7.84303 19.9787C7.8432 19.8151 7.84675 19.6515 7.84831 19.4879C7.85448 18.8415 7.90386 18.1749 7.85931 17.5302C7.32503 16.9973 7.05681 16.3178 7.15881 15.561ZM8.1882 15.784C8.15853 16.127 8.27759 16.4672 8.51609 16.7152C8.63364 16.8373 8.77959 16.9238 8.91575 17.0219C8.94509 17.055 8.93098 17.1362 8.93114 17.179C8.93175 17.3297 8.93059 17.4804 8.93109 17.6311C8.93309 18.2368 8.97809 18.8651 8.92247 19.4683C9.11275 19.4686 9.30425 19.4578 9.49509 19.4584C9.59698 19.4587 9.7262 19.4809 9.82475 19.4557C9.80697 18.9503 9.82181 18.4409 9.8227 17.9351C9.82325 17.6302 9.7932 17.3073 9.83253 17.0047C10.0519 16.8407 10.2714 16.6852 10.4001 16.4356C10.8036 15.6528 10.2537 14.6607 9.35059 14.6646C9.20259 14.6653 9.05786 14.6994 8.92203 14.757C8.77781 14.8181 8.64742 14.9053 8.53814 15.0178C8.31725 15.2451 8.25064 15.4869 8.1882 15.784Z" fill="white"/>
<path fill-rule="evenodd" clip-rule="evenodd" d="M16.0569 25.5998C16.2684 25.4684 16.5302 25.4275 16.7563 25.3239C17.0314 25.1979 17.2593 25.0269 17.4999 24.8489C17.5898 24.833 17.6919 24.8649 17.7827 24.8709C18.0313 24.8875 18.2791 24.9162 18.5276 24.9359C19.2108 24.9902 19.8975 25.0168 20.5828 25.0245C22.8816 25.0502 25.2503 24.8745 27.4711 24.2546C28.2534 24.0362 28.9987 23.7547 29.712 23.3659C30.1034 23.1527 30.4972 22.8777 30.7109 22.4764C30.7828 22.3414 30.7723 22.1758 30.7719 22.0275C30.7713 21.7889 30.7688 21.5504 30.7688 21.3119C30.7686 20.7211 30.7762 20.1303 30.7766 19.5395C30.7768 19.1952 30.753 18.8411 30.7842 18.4979C30.3146 18.7492 29.8724 19.0214 29.3729 19.2166C27.9425 19.7758 26.4297 20.0794 24.9121 20.2846C23.9876 20.4096 23.0542 20.501 22.1212 20.5252C21.4185 20.5434 20.7109 20.5689 20.0077 20.5371C19.846 20.5298 19.6838 20.5279 19.5219 20.5265C19.4574 20.5259 19.3723 20.5411 19.3115 20.5195C19.3019 20.188 19.314 19.8557 19.3007 19.5244C19.4124 19.4925 19.5388 19.512 19.6537 19.5169C19.8321 19.5245 20.0106 19.5271 20.1891 19.5306C20.8119 19.5425 21.4389 19.5462 22.0616 19.5234C23.8329 19.4586 25.6163 19.2477 27.3372 18.8156C28.0889 18.6268 28.8238 18.3901 29.5239 18.0558C29.8504 17.8998 30.1791 17.7311 30.4632 17.5046C30.6717 17.3384 30.8483 17.1501 31.0151 16.9431C31.0789 16.8638 31.1616 16.7006 31.2632 16.6676C31.3358 16.6441 31.4513 16.6894 31.5172 16.7226C31.778 16.854 31.7701 17.0752 31.7709 17.3272C31.7721 17.6962 31.7723 18.0651 31.7711 18.434C31.7683 19.2434 31.7408 20.0602 31.7728 20.8689C31.7861 21.2051 31.7821 21.5452 31.7786 21.8822C31.7764 22.0923 31.7926 22.3158 31.7478 22.5224C31.6637 22.9104 31.4353 23.2581 31.1646 23.5433C30.8487 23.876 30.4258 24.1342 30.0208 24.344C29.3677 24.6823 28.6737 24.951 27.9643 25.1478C26.169 25.6459 24.3485 25.8696 22.4944 25.9907C21.6033 26.0489 20.7092 26.0076 19.8177 25.999C18.8934 25.9901 17.9797 25.8755 17.0614 25.7848C16.8087 25.7599 16.5401 25.7305 16.2936 25.6694C16.2158 25.6502 16.1171 25.6551 16.0569 25.5998Z" fill="white"/>
<path fill-rule="evenodd" clip-rule="evenodd" d="M17.1337 6.15376C17.1336 6.14164 17.1336 6.12952 17.1335 6.1174C17.4458 6.01779 17.8203 6.02382 18.1461 5.99422C18.8402 5.93119 19.5347 5.89926 20.2314 5.88459C21.8073 5.85133 23.3809 5.92222 24.9454 6.11806C26.026 6.25331 27.1284 6.44086 28.1705 6.76215C28.9799 7.01167 29.7769 7.29102 30.4997 7.73926C30.8682 7.96787 31.2326 8.25363 31.4774 8.61527C31.6194 8.82506 31.7246 9.06794 31.7626 9.3189C31.8053 9.60052 31.7713 9.90377 31.771 10.1883C31.7704 10.8709 31.7715 11.5534 31.7714 12.2359C31.7712 12.9 31.772 13.564 31.7722 14.2281C31.7722 14.5917 31.8238 14.9996 31.751 15.3573C31.6837 15.6884 31.4658 16.0127 31.2347 16.2535C30.3795 17.145 29.1264 17.5837 27.9689 17.9313C26.696 18.3135 25.3661 18.5189 24.0463 18.6553C23.3362 18.7287 22.6226 18.7475 21.9109 18.7962C21.6258 18.8158 21.334 18.8043 21.0483 18.8045C20.7444 18.8048 20.4373 18.815 20.1338 18.7972C19.8667 18.7816 19.5812 18.7535 19.3145 18.7708C19.2993 18.5472 19.3101 18.3209 19.3109 18.0968C19.3113 17.9854 19.2918 17.8623 19.3104 17.753C20.0969 17.8187 20.8956 17.8007 21.6839 17.7871C23.7362 17.7518 25.757 17.4853 27.7387 16.9493C28.4614 16.7539 29.1805 16.4688 29.8248 16.0885C30.1622 15.8893 30.5089 15.6383 30.7086 15.2932C30.7837 15.1634 30.7765 14.99 30.776 14.8445C30.7753 14.611 30.7753 14.3777 30.7751 14.1443C30.7746 13.5085 30.7762 12.8726 30.7767 12.2368C30.7769 11.927 30.7313 11.5742 30.7855 11.2693C29.6313 12.0136 28.3104 12.4353 26.9722 12.7199C25.2363 13.0892 23.4526 13.2942 21.678 13.3264C21.0987 13.3369 20.5184 13.3305 19.9391 13.3224C19.7309 13.3194 19.5181 13.2926 19.3107 13.2997C19.2816 13.1982 19.3039 13.0676 19.3033 12.9617C19.3019 12.7306 19.3033 12.5021 19.279 12.2719C19.5857 12.2474 19.9091 12.2948 20.217 12.3038C20.7576 12.3195 21.2997 12.317 21.8403 12.3021C22.9732 12.271 24.099 12.1463 25.2215 11.9984C26.2831 11.8586 27.3779 11.6588 28.3867 11.2916C29.0819 11.0386 29.8461 10.7929 30.4024 10.2838C30.6734 10.0358 30.9076 9.67246 30.726 9.30435C30.5681 8.98449 30.244 8.76518 29.9531 8.57676C29.2029 8.09077 28.2917 7.82067 27.4312 7.60595C25.1728 7.04222 22.8256 6.85329 20.501 6.89214C19.7069 6.90542 18.9175 6.9627 18.1264 7.02235C17.9044 7.03912 17.6828 7.07265 17.462 7.10093C17.3624 7.11372 17.2417 7.1535 17.1424 7.13436C17.1449 6.80913 17.1521 6.47871 17.1337 6.15376Z" fill="white"/>
</g>
<defs>
<clipPath id="clip0_292_679">
<rect width="32" height="34" fill="white"/>
</clipPath>
</defs>
</svg>
